<svg
   width="35"
   height="15"
   viewBox="0 0 79.504636 34.520847"
   version="1.1"
   id="svg1"
   xmlns="http://www.w3.org/2000/svg"
   xmlns:svg="http://www.w3.org/2000/svg">
  <defs
     id="defs1" />
  <g
     id="layer1"
     transform="translate(28.662019,7.7605632)">
    <path
       class="cls-1"
       d="M -6.5510192,6.9145031 H 3.0110225 L 1.9659184,5.1021073 A 3.1511875,3.1511875 0 0 0 0.80968924,3.9220656 3.2834791,3.2834791 0 0 0 -0.82279016,3.5119615 H -13.149728 l 0.529167,0.6164791 v 0 a 7.7655207,7.7655207 0 0 0 6.0668958,2.7754792"
       id="path1"
       style="fill:#58a4f8;fill-rule:evenodd;stroke-width:0.264583" />
    <path
       class="cls-2"
       d="M 3.5110855,7.7823364 H -8.5883112 l 0.529167,0.6164792 v 0 a 7.7681666,7.7681666 0 0 0 6.069541,2.7887084 H 5.4690015 L 3.5110855,7.7929198"
       id="path2"
       style="fill:#77c0f9;fill-rule:evenodd;stroke-width:0.264583" />
    <path
       class="cls-3"
       d="m 19.267023,17.537524 a 1.8520833,1.8520833 0 1 1 -1.852083,1.852083 1.8520833,1.8520833 0 0 1 1.852083,-1.852083 z m -6.495521,0 a 1.8520833,1.8520833 0 1 1 -1.852084,1.852083 1.8520833,1.8520833 0 0 1 1.852084,-1.852083"
       id="path3"
       style="fill:#3880ff;fill-rule:evenodd;stroke-width:0.264583" />
    <path
       class="cls-3"
       d="m 25.950397,-0.50970506 a 28.02202,28.02202 0 0 0 -3.175,3.17499986 H 6.5114605 L 8.4720224,6.0572531 H 24.638063 l -2.669645,4.6011039 a 4.0904583,4.0904583 0 0 1 -1.484313,1.51077 v 0 a 4.0772291,4.0772291 0 0 1 -2.05052,0.529167 h -4.839229 a 4.0428333,4.0428333 0 0 1 -2.039937,-0.529167 4.1301458,4.1301458 0 0 1 -1.479022,-1.51077 L 9.2234395,9.1819822 5.6568555,2.9854406 A 7.4083332,7.4083332 0 0 0 2.9342935,0.24435734 7.5062291,7.5062291 0 0 0 -0.81485316,-0.74783006 H -14.425019 c -1.378479,0 -2.690813,-0.084667 -4.066646,-0.83872924 l 0.182562,0.206375 1.322917,1.44197914 A 7.7549374,7.7549374 0 0 0 -11.075394,2.662649 H -0.81749916 A 4.1036874,4.1036874 0 0 1 1.2462517,3.1918156 4.0110833,4.0110833 0 0 1 2.7226265,4.6893573 l 3.577167,6.1938957 0.849312,1.473728 a 7.5141666,7.5141666 0 0 0 2.725209,2.759604 7.3686457,7.3686457 0 0 0 3.7200415,0.97896 h 4.828646 a 7.4400832,7.4400832 0 0 0 3.741207,-0.986897 v 0 a 7.4453749,7.4453749 0 0 0 2.719917,-2.754313 L 27.881855,7.2187739 28.842293,5.551899 A 10.797646,10.797646 0 0 1 31.702438,2.234024 L 35.075876,1.3053365 32.239543,0.46131564 C 30.562084,-2.4940801 28.75498,-2.7957051 25.963626,-0.50176756 Z m 3.095625,-0.079375 a 0.52916666,0.52916666 0 1 1 -0.515938,0.5159374 0.52916666,0.52916666 0 0 1 0.515938,-0.5159374"
       id="path4"
       style="fill:#3880ff;fill-rule:evenodd;stroke-width:0.264583" />
  </g>
</svg>