<svg xmlns="http://www.w3.org/2000/svg" width="20px" height="20px" viewBox="0 0 300 300" enable-background="new 0 0 300 300">
<path d="M0 0 C0.7734375 0.7115625 0.7734375 0.7115625 1.5625 1.4375 C1.5625 2.0975 1.5625 2.7575 1.5625 3.4375 C2.2225 3.4375 2.8825 3.4375 3.5625 3.4375 C4.50136662 5.14508265 5.43852523 6.85360444 6.375 8.5625 C12.35920345 17.26373391 22.75768283 18.38906951 32.5625 20.4375 C32.5625 21.4275 32.5625 22.4175 32.5625 23.4375 C30.68812913 24.0228517 28.81295087 24.60561787 26.9375 25.1875 C25.75671875 25.55617187 24.5759375 25.92484375 23.359375 26.3046875 C20.8638431 27.0492392 18.35272835 27.74373927 15.828125 28.3828125 C8.55299392 30.24062494 3.73548311 31.9036111 -1.4375 37.4375 C-1.7675 38.0975 -2.0975 38.7575 -2.4375 39.4375 C-3.0975 39.4375 -3.7575 39.4375 -4.4375 39.4375 C-4.70167725 40.00436523 -4.96585449 40.57123047 -5.23803711 41.15527344 C-6.52188924 43.59806801 -8.00653013 45.72134371 -9.62890625 47.953125 C-13.56106833 53.50800339 -16.987736 59.28906998 -20.375 65.1875 C-20.98762695 66.24590088 -21.60025391 67.30430176 -22.23144531 68.39477539 C-26.01281058 74.93501434 -29.76224459 81.49335526 -33.5 88.05859375 C-35.87361627 92.19806568 -38.27466624 96.32078966 -40.6875 100.4375 C-41.10032227 101.14447021 -41.51314453 101.85144043 -41.93847656 102.57983398 C-48.21133382 113.25158972 -55.0294756 122.50592637 -65.4375 129.4375 C-66.448125 130.13875 -67.45875 130.84 -68.5 131.5625 C-82.0640419 138.69766431 -96.9943416 138.02863913 -111.890625 137.90405273 C-115.69314898 137.87495678 -119.49428595 137.88350542 -123.296875 137.89648438 C-125.74479836 137.89024917 -128.19271738 137.88185994 -130.640625 137.87109375 C-131.76172668 137.87402939 -132.88282837 137.87696503 -134.03790283 137.87998962 C-149.18157926 137.70079178 -164.58264081 132.34793014 -175.4375 121.4375 C-182.2210251 113.43547993 -187.63036114 104.73741441 -192.4375 95.4375 C-197.46877645 86.38349454 -202.7833862 77.50809526 -208.13720703 68.64233398 C-210.83384218 64.16188375 -213.4616202 59.66864186 -215.9375 55.0625 C-220.95114028 45.74730168 -226.08072237 38.88975921 -236.4375 35.4375 C-242.16125714 34.55387498 -247.72452197 34.28729055 -253.50878906 34.27978516 C-254.37825668 34.27470444 -255.2477243 34.26962372 -256.14353943 34.26438904 C-258.01881173 34.25374754 -259.89409624 34.24510337 -261.76938629 34.23826981 C-264.74742541 34.22638572 -267.72532562 34.2069092 -270.70330811 34.18515015 C-279.16625281 34.1238532 -287.62918071 34.06958254 -296.09228516 34.03613281 C-301.28229881 34.0150757 -306.47205377 33.97968902 -311.66191864 33.93537521 C-313.62805876 33.92130744 -315.59424458 33.91251385 -317.56043243 33.90932083 C-336.13019945 33.87597001 -350.62154048 31.35033232 -365.4375 19.4375 C-366.283125 18.81875 -367.12875 18.2 -368 17.5625 C-370.89131412 15.04186717 -373.31063702 12.26124573 -375.7890625 9.33984375 C-377.39020861 7.42917551 -377.39020861 7.42917551 -379.1484375 5.81640625 C-380.4375 4.4375 -380.4375 4.4375 -380.4375 2.4375 C-381.0975 2.4375 -381.7575 2.4375 -382.4375 2.4375 C-382.1075 1.1175 -381.7775 -0.2025 -381.4375 -1.5625 C-380.67179687 -1.16417969 -380.67179687 -1.16417969 -379.890625 -0.7578125 C-369.62448352 4.22963921 -359.00021262 4.73466221 -347.74682617 4.67700195 C-345.93691444 4.68002319 -345.93691444 4.68002319 -344.09043884 4.68310547 C-340.81747613 4.68754218 -337.54463587 4.68366596 -334.27168059 4.67755914 C-330.81938153 4.6745522 -327.36714642 4.68676938 -323.91487122 4.6985321 C-312.19087998 4.73602143 -300.46696864 4.75449272 -288.74291992 4.74291992 C-282.24814327 4.73666748 -275.75364434 4.74846055 -269.25893575 4.77936524 C-265.83622862 4.79482612 -262.41406853 4.80122747 -258.99135399 4.78478432 C-237.83849071 4.70484838 -220.98600528 5.79617266 -204.75390625 20.94140625 C-197.17435318 28.86705763 -191.85443652 37.97132369 -186.6640625 47.54296875 C-183.2397098 53.8427076 -179.65960511 60.04771599 -176.0625 66.25 C-168.48068772 79.33459138 -168.48068772 79.33459138 -165.859375 84.02734375 C-165.50278809 84.66373779 -165.14620117 85.30013184 -164.77880859 85.95581055 C-163.89726064 87.53560327 -163.02248507 89.11917024 -162.1484375 90.703125 C-160.7703319 92.90557687 -159.40741273 94.71619101 -157.7265625 96.671875 C-155.4375 99.4375 -155.4375 99.4375 -155.4375 101.4375 C-154.85927994 101.72440201 -154.28105988 102.01130402 -153.68531799 102.30690002 C-152.2850968 103.0111786 -150.89432366 103.73499394 -149.51963806 104.48789978 C-142.9893928 107.80274138 -137.11319909 108.03579392 -129.87890625 108.00390625 C-128.10240944 108.01320412 -128.10240944 108.01320412 -126.2900238 108.02268982 C-123.79646624 108.02976355 -121.30286121 108.02665706 -118.80932617 108.01391602 C-115.0145698 108.00005323 -111.22228296 108.03416034 -107.42773438 108.07226562 C-104.99479107 108.07321699 -102.56184471 108.07135707 -100.12890625 108.06640625 C-99.00569473 108.07966446 -97.88248322 108.09292267 -96.72523499 108.10658264 C-88.4256948 108.00948987 -81.66710023 106.25704888 -75.39015198 100.58863831 C-71.43561713 96.46342604 -68.79650635 91.7575244 -66.1796875 86.71484375 C-63.9878659 82.59166365 -61.62754399 78.58064818 -59.25 74.5625 C-58.82162842 73.83683838 -58.39325684 73.11117676 -57.9519043 72.36352539 C-55.79394264 68.71331568 -53.61978075 65.07322699 -51.4375 61.4375 C-52.06219114 61.44801675 -52.68688229 61.4585335 -53.33050346 61.46936893 C-68.56413288 61.71993401 -83.79557086 61.87565009 -99.03100395 61.92715549 C-106.39925816 61.95432777 -113.7646894 62.01302521 -121.13183594 62.1472168 C-127.55695274 62.26416806 -133.97934867 62.32066923 -140.40556157 62.30603737 C-143.80652939 62.30036756 -147.20136127 62.32395925 -150.60110092 62.42010689 C-171.31438611 62.92297422 -171.31438611 62.92297422 -176.53873444 58.76527023 C-179.92851432 54.75618599 -181.95532707 50.3557227 -183.69583511 45.43685722 C-184.68035447 42.78282044 -186.06429887 40.45659308 -187.5625 38.0625 C-189.09654542 35.40701448 -189.4375 34.61516859 -189.4375 31.4375 C-188.78942855 31.43972061 -188.1413571 31.44194122 -187.47364712 31.44422913 C-171.69018697 31.49555928 -155.90741564 31.50267798 -140.12395382 31.46084595 C-132.49105897 31.44167737 -124.85870002 31.43736447 -117.22583008 31.46826172 C-110.57141499 31.49516031 -103.91769416 31.49394318 -97.26330477 31.45924091 C-93.74093308 31.44184652 -90.21980454 31.43834396 -86.6974926 31.46853638 C-82.7611918 31.50174981 -78.82669724 31.47217831 -74.89038086 31.4375 C-73.728004 31.45691147 -72.56562714 31.47632294 -71.36802673 31.49632263 C-65.36707206 31.44097195 -65.36707206 31.44097195 -60.21599007 28.69847107 C-58.44803352 26.69120912 -56.94296179 24.64484546 -55.4375 22.4375 C-41.93987055 7.3066456 -20.82602293 -13.3500147 0 0 Z M-17.4375 9.4375 C-17.1075 11.0875 -16.7775 12.7375 -16.4375 14.4375 C-14.7875 14.1075 -13.1375 13.7775 -11.4375 13.4375 C-11.7675 11.7875 -12.0975 10.1375 -12.4375 8.4375 C-15.3629644 8.2138932 -15.3629644 8.2138932 -17.4375 9.4375 Z " fill="#3780FF" transform="translate(411.4375,178.5625)"/>
<path d="M0 0 C13.29130632 -0.0927682 26.58253533 -0.16379995 39.87409973 -0.20724869 C46.04622857 -0.22810418 52.21813555 -0.25638522 58.39013672 -0.30175781 C64.34885839 -0.34528731 70.30736693 -0.36915244 76.26623535 -0.37950897 C78.53718418 -0.38688751 80.80812163 -0.40129607 83.07897949 -0.42292023 C86.26514701 -0.45204786 89.45043905 -0.45595198 92.63671875 -0.45410156 C94.03826454 -0.47567322 94.03826454 -0.47567322 95.46812439 -0.49768066 C102.60967648 -0.45293764 107.81111532 1.29626188 113.28515625 5.9375 C126 20.69230769 126 20.69230769 126 28 C115.20321512 28.0464473 104.40645422 28.08193205 93.60958958 28.10362434 C88.595566 28.11403828 83.58161105 28.12815368 78.56762695 28.15087891 C73.72413907 28.1726927 68.88071699 28.18458659 64.03718376 28.18975449 C62.19412132 28.19343496 60.35106227 28.20062183 58.50802803 28.21146011 C55.91616301 28.22608864 53.32456602 28.22797323 50.73266602 28.22705078 C49.97956146 28.23424133 49.22645691 28.24143188 48.45053101 28.24884033 C29.44563124 28.17618522 14.87350193 18.14995448 1.80078125 5.19921875 C0 3 0 3 0 0 Z " fill="#36A6FF" transform="translate(70,217)"/>
<path d="M0 0 C12.28250784 -0.20858517 24.56459406 -0.36847236 36.84851265 -0.46630955 C42.55263981 -0.51326897 48.25555489 -0.57695314 53.95898438 -0.67895508 C59.46392583 -0.77679036 64.96770214 -0.83056701 70.47344589 -0.85389519 C72.5731529 -0.87051748 74.67279649 -0.9029792 76.77200699 -0.95157051 C93.25447747 -1.31790167 93.25447747 -1.31790167 97.58827209 1.95419312 C99.17541889 4.28999853 100.12234062 6.32854096 101 9 C101.59167969 10.02609375 102.18335938 11.0521875 102.79296875 12.109375 C103.25316406 12.98078125 103.71335937 13.8521875 104.1875 14.75 C105.61674874 17.44312986 107.04152125 20.06542742 108.67578125 22.640625 C110 25 110 25 110 28 C101.54067278 28.0934744 93.08156823 28.16415137 84.62184906 28.20724869 C80.69188444 28.22795337 76.76227806 28.25594898 72.83251953 28.30175781 C69.02638836 28.34583809 65.22059746 28.36926504 61.41423035 28.37950897 C59.97603511 28.38679076 58.53785439 28.40100267 57.09980774 28.42292023 C36.95057774 28.71726183 21.32019027 23.35184391 6.375 9.4296875 C0 2.90789474 0 2.90789474 0 0 Z " fill="#5CC2FE" transform="translate(105,250)"/>
<path d="M0 0 C3.5677811 2.35149209 5.84221079 4.99692157 7.75 8.8125 C8.29360446 13.76732094 8.31437074 17.68375852 6.0625 22.1875 C2.39458598 26.35107808 -0.84490996 29.62749307 -6.5 30.0625 C-11.1724901 29.75100066 -14.31427674 28.72213534 -17.69921875 25.3828125 C-21.40756382 21.11130901 -22.6775752 17.68696965 -22.59375 12.0078125 C-21.95607596 7.93539421 -19.92489101 4.88262556 -17.25 1.8125 C-11.72957977 -2.11313216 -6.2102606 -2.26913368 0 0 Z " fill="#3880FF" transform="translate(278.25,326.1875)"/>
<path d="M0 0 C4.82159389 2.36531021 7.70321747 5.14142156 10 10 C10.87281825 15.4000531 10.94803875 20.31585355 7.875 25 C4.37917934 29.09482364 0.86510747 30.80016706 -4.5 31.375 C-9.93418927 30.79276544 -12.88106882 29.06920091 -16.8125 25.3125 C-20.19109237 20.19634584 -20.3243971 16.351879 -19.5 10.375 C-15.76097831 1.96220119 -8.7942914 -1.05294214 0 0 Z " fill="#387FFF" transform="translate(326,325)"/>
</svg>